<svg xmlns="http://www.w3.org/2000/svg" viewBox="0 0 322.65 134"><defs><style>.cls-1{fill:#006580;}</style></defs><title>jhpiego-logo</title><g id="Layer_2" data-name="Layer 2"><g id="Layer_1-2" data-name="Layer 1"><g id="RGB_Logo_Horz_Web_Teal" data-name="RGB Logo Horz Web Teal"><path class="cls-1" d="M300.89,55.88a7.18,7.18,0,0,1,9.3,0,5.86,5.86,0,0,1,1.91,4.59A5.76,5.76,0,0,1,310.19,65a7.3,7.3,0,0,1-9.3,0A5.76,5.76,0,0,1,299,60.47a5.85,5.85,0,0,1,1.91-4.59m-12.45,4.47c-.08,8.73,7.61,15.94,17,16s17-6.85,17.18-15.79c.14-8.74-7.52-15.95-17-16s-17.14,7-17.22,15.8"/><path class="cls-1" d="M199.93,40.77a6.7,6.7,0,0,0,8.54,0,5.28,5.28,0,0,0,1.76-4.18,5.37,5.37,0,0,0-1.76-4.21,6.61,6.61,0,0,0-8.54,0,5.38,5.38,0,0,0-1.75,4.21,5.28,5.28,0,0,0,1.75,4.18"/><path class="cls-1" d="M177.3,66.87c-4.06,0-6.85-2.59-6.82-6.42,0-4,2.67-6.55,6.68-6.53a6.29,6.29,0,0,1,6.6,6.42,6.21,6.21,0,0,1-6.46,6.53m14.59,2.66c3.27-5.54,3.59-11.26.7-17a13.89,13.89,0,0,0-10.76-7.82,13.52,13.52,0,0,0-11.39,3.11V45.92a.71.71,0,0,0-.71-.67h-9.21a.71.71,0,0,0-.71.67v44a.74.74,0,0,0,.4.66s2.74,1.26,7-.07c3.56-1.11,3.22-5.34,3.22-5.34v-12c8.85,6.39,18.18,1.94,21.46-3.61"/><path class="cls-1" d="M267,66.87a6.2,6.2,0,0,1-6.46-6.53,6.28,6.28,0,0,1,6.59-6.42c4,0,6.65,2.55,6.69,6.53,0,3.83-2.76,6.45-6.82,6.42m17.48,7.9h0V45.93a.71.71,0,0,0-.71-.67h-9.21a.7.7,0,0,0-.71.67v1.91a13.51,13.51,0,0,0-11.39-3.11,13.9,13.9,0,0,0-10.76,7.82c-2.88,5.72-2.57,11.44.7,17s12.61,10,21.46,3.61v2c0,4.69-2.88,6.65-7,6.65a6.33,6.33,0,0,1-4.24-1.49A5.38,5.38,0,0,1,261,78.06a.71.71,0,0,0-.78-.51h0L252.1,80a.69.69,0,0,0-.48.8s0,.09,0,.13v0c.05.22.12.43.2.65h0c1.43,4.19,5.79,8.4,13,9.15l.87.07q.71,0,1.46,0c10.07,0,17.1-6,17.21-16.14"/><path class="cls-1" d="M230.36,52.52a5.26,5.26,0,0,1,5.37,3.71,6.29,6.29,0,0,1,.21.93H224.61a6,6,0,0,1,5.75-4.65m-4.22,23.2a17.36,17.36,0,0,0,3.77.57h.72c5.06,0,9.63-1.56,12.61-5.32a14,14,0,0,0,1.46-2.25l0-.1a.71.71,0,0,0-.37-.94h0L236.78,65h0a.7.7,0,0,0-.74.15l-.06.07-.27.28h0a6.29,6.29,0,0,1-11-2.36h20.5a.71.71,0,0,0,.63-.59.35.35,0,0,0,0-.08v0c.07-.83.09-1.66.09-2.51a16.13,16.13,0,0,0-.09-1.76,15.06,15.06,0,0,0-10.63-12.93,16.22,16.22,0,0,0-4.81-.71,16,16,0,0,0-16.23,15.81,15.75,15.75,0,0,0,12,15.34"/><path class="cls-1" d="M209.51,75.2v-24s.33-4.24-3.22-5.34c-4.28-1.33-7-.08-7-.08a.75.75,0,0,0-.4.66V75.15a.71.71,0,0,0,.71.72h9.21a.71.71,0,0,0,.71-.67"/><path class="cls-1" d="M122.67,75.95H132a.7.7,0,0,0,.67-.67V59.81a.08.08,0,0,1,0,0,5.9,5.9,0,0,1,1.45-3.86,4.85,4.85,0,0,1,3.21-1.62,7.13,7.13,0,0,1,.76,0,5.1,5.1,0,0,1,4,1.66,5.77,5.77,0,0,1,1.42,3.16c0,.07,0,.14,0,.22a5.48,5.48,0,0,1,0,.67V75.21a.71.71,0,0,0,.71.72h9.21a.71.71,0,0,0,.71-.67V58.41c0-7.63-4.06-13.86-13.16-13.86a11.8,11.8,0,0,0-8.38,3.15V37.4s.33-4.07-3.22-5.17c-4.28-1.33-7-.07-7-.07a.74.74,0,0,0-.4.66V75.28a.7.7,0,0,0,.67.67"/><path class="cls-1" d="M106.5,40.77a6.7,6.7,0,0,0,8.54,0,5.28,5.28,0,0,0,1.76-4.18A5.37,5.37,0,0,0,115,32.38a6.61,6.61,0,0,0-8.54,0,5.38,5.38,0,0,0-1.75,4.21,5.28,5.28,0,0,0,1.75,4.18"/><path class="cls-1" d="M102.65,90.51a5.2,5.2,0,0,0,2.19.48c4.8-.11,8.66-2.53,10.35-6.46a13.49,13.49,0,0,0,1.15-5.38c0-1.27,0-28,0-28s.33-4.24-3.22-5.34l-.26-.07-.31-.09a10.2,10.2,0,0,0-6.45.08.75.75,0,0,0-.4.66v30.4c0,3.66-.55,4.25-4.43,4.83h-.15c-.62,0-.82,1.11-.88,1.88,0,.15,0,.34,0,.54v.09h0c0,.38,0,.79,0,1a10.93,10.93,0,0,0,.19,2.05s0,.08,0,.12a5.91,5.91,0,0,0,.22.79,4.59,4.59,0,0,0,.44.9l.1.15a4,4,0,0,0,1.51,1.28"/><path class="cls-1" d="M130.48,101.07a1.29,1.29,0,1,0,1.27,1.29,1.3,1.3,0,0,0-1.27-1.29"/><path class="cls-1" d="M161,103.65a1.29,1.29,0,1,0-1.29-1.29,1.29,1.29,0,0,0,1.29,1.29"/><path class="cls-1" d="M246.94,103.65a1.29,1.29,0,1,0-1.29-1.29,1.29,1.29,0,0,0,1.29,1.29"/><path class="cls-1" d="M106.16,110.67a3.88,3.88,0,0,1-2.84-1.23c-.22-.22-.45-.33-.75-.11l-.89.68a.56.56,0,0,0,0,.88,5.68,5.68,0,0,0,4.34,1.67c3,0,4.46-1.77,4.46-3.46s-1.18-2.69-3-3.17l-2.19-.58c-1-.25-1.27-.68-1.27-1.19,0-.85.85-1.32,1.9-1.32a4,4,0,0,1,2.47,1,.58.58,0,0,0,.85,0l.67-.69c.16-.16.32-.43-.06-.8A5.67,5.67,0,0,0,106,101c-2.46,0-4.26,1.39-4.26,3.35,0,1.55,1,2.58,2.71,3l2,.53c1.1.29,1.68.69,1.68,1.45s-.67,1.35-2,1.35"/><path class="cls-1" d="M117.54,108.5a2.07,2.07,0,1,1-2.06-2.15,2.09,2.09,0,0,1,2.06,2.15m-6.2,0a3.9,3.9,0,0,0,3.84,4.08,2.7,2.7,0,0,0,2.36-1.16V112a.32.32,0,0,0,.32.32h1.4a.32.32,0,0,0,.32-.32v-7a.32.32,0,0,0-.32-.33h-1.4a.33.33,0,0,0-.32.33v.61a2.65,2.65,0,0,0-2.34-1.16,3.88,3.88,0,0,0-3.86,4"/><path class="cls-1" d="M126,112l2.44-6.85a.35.35,0,0,0-.32-.5h-1.47a.39.39,0,0,0-.4.32l-1.59,5.28L122.88,105a.4.4,0,0,0-.4-.32h-1.54a.34.34,0,0,0-.3.5l2.44,6.85a.45.45,0,0,0,.43.34h2A.44.44,0,0,0,126,112"/><path class="cls-1" d="M129.78,104.66a.33.33,0,0,0-.33.33v7a.34.34,0,0,0,.33.33h1.39a.34.34,0,0,0,.33-.33v-7a.33.33,0,0,0-.33-.33Z"/><path class="cls-1" d="M137.75,104.43a3.06,3.06,0,0,0-2.55,1.13V105a.34.34,0,0,0-.33-.3h-1.4a.33.33,0,0,0-.32.34v7a.32.32,0,0,0,.32.32h1.4a.33.33,0,0,0,.33-.3v-3.71a1.86,1.86,0,0,1,1.93-2,1.79,1.79,0,0,1,1.86,2V112a.32.32,0,0,0,.33.3h1.39a.32.32,0,0,0,.33-.3v-4.27a3.15,3.15,0,0,0-3.3-3.33"/><path class="cls-1" d="M146.38,110.57a2.12,2.12,0,1,1,2.06-2.12,2,2,0,0,1-2.06,2.12m0,3.67a1.82,1.82,0,0,1-1.93-1.18.31.31,0,0,0-.37-.14l-1.48.4a.24.24,0,0,0-.16.32c.35,1.45,1.85,2.38,3.89,2.38,2.57,0,4.13-1.48,4.13-3.62V105a.32.32,0,0,0-.33-.32h-1.39a.32.32,0,0,0-.32.32v.62a2.79,2.79,0,0,0-2.41-1.18,4,4,0,0,0,.08,8,2.72,2.72,0,0,0,2.33-1.1v1a1.81,1.81,0,0,1-2,1.91"/><path class="cls-1" d="M158.54,112.34a.37.37,0,0,0,.41-.4v-1a.29.29,0,0,0-.32-.3h-.46a.54.54,0,0,1-.57-.61v-8.51a.34.34,0,0,0-.33-.33h-1.39a.34.34,0,0,0-.34.33v8.91a1.74,1.74,0,0,0,2,1.91Z"/><path class="cls-1" d="M161.65,104.66h-1.39a.33.33,0,0,0-.33.33v7a.34.34,0,0,0,.33.33h1.39A.34.34,0,0,0,162,112v-7a.33.33,0,0,0-.33-.33"/><path class="cls-1" d="M165.9,112.34h2a.44.44,0,0,0,.41-.33l2.44-6.85a.35.35,0,0,0-.32-.5H169a.39.39,0,0,0-.4.32L167,110.25,165.28,105a.4.4,0,0,0-.4-.32h-1.55a.34.34,0,0,0-.3.5l2.44,6.85a.44.44,0,0,0,.43.33"/><path class="cls-1" d="M173.36,107.7a1.94,1.94,0,0,1,1.9-1.61,1.87,1.87,0,0,1,1.88,1.61Zm1.88-3.27a4,4,0,0,0-4,4.1,4.21,4.21,0,0,0,7.41,2.55.32.32,0,0,0-.06-.46l-1-.7c-.18-.13-.3,0-.41.08a2.21,2.21,0,0,1-1.8.82,2,2,0,0,1-2-1.8h5.48c.29,0,.37-.16.37-.35v-.38a3.8,3.8,0,0,0-3.92-3.84"/><path class="cls-1" d="M183.24,112.56c2,0,3.43-1.08,3.43-2.57s-1-2-2.35-2.3l-1.26-.24c-.7-.13-1-.37-1-.73s.44-.69,1.15-.69a3.27,3.27,0,0,1,1.82.65c.29.18.53.18.72,0l.51-.61a.41.41,0,0,0,0-.64,4.59,4.59,0,0,0-3-1c-2,0-3.25,1.07-3.25,2.45a2.29,2.29,0,0,0,2.07,2.28l1.23.25c.8.16,1.23.32,1.23.77s-.4.77-1.23.77a2.92,2.92,0,0,1-2-.8.5.5,0,0,0-.72,0l-.59.48c-.32.26-.35.62.24,1.07a4.83,4.83,0,0,0,2.94.91"/><path class="cls-1" d="M190.5,111.16a1.41,1.41,0,1,0-2.82,0,1.4,1.4,0,0,0,1.4,1.4,1.42,1.42,0,0,0,1.42-1.4"/><path class="cls-1" d="M197.43,101.18H196a.34.34,0,0,0-.34.34V112a.34.34,0,0,0,.34.35h1.47a.34.34,0,0,0,.33-.35V101.52a.34.34,0,0,0-.33-.34"/><path class="cls-1" d="M205,108.18V112a.33.33,0,0,0,.33.3h1.39a.33.33,0,0,0,.34-.3v-3.86a1.68,1.68,0,0,1,1.72-1.85,1.62,1.62,0,0,1,1.64,1.85V112a.32.32,0,0,0,.34.3h1.39a.32.32,0,0,0,.33-.3v-4.35a3.09,3.09,0,0,0-3.28-3.25,3.3,3.3,0,0,0-2.73,1.36,2.67,2.67,0,0,0-2.45-1.36,3,3,0,0,0-2.39,1.13V105a.34.34,0,0,0-.33-.3h-1.4a.32.32,0,0,0-.32.34v7a.32.32,0,0,0,.32.32h1.4a.33.33,0,0,0,.33-.3v-3.86a1.69,1.69,0,0,1,1.74-1.85,1.62,1.62,0,0,1,1.64,1.85"/><path class="cls-1" d="M216.11,108.5a2.07,2.07,0,1,1,2.07,2.17,2.09,2.09,0,0,1-2.07-2.17m6.2,0a3.84,3.84,0,0,0-3.8-4,2.86,2.86,0,0,0-2.42,1.16V105a.32.32,0,0,0-.32-.33h-1.39a.32.32,0,0,0-.32.33v10.46a.32.32,0,0,0,.32.32h1.42a.32.32,0,0,0,.32-.32v-4a2.87,2.87,0,0,0,2.36,1.08,3.86,3.86,0,0,0,3.83-4.08"/><path class="cls-1" d="M225.64,112v-3.46c0-1.32.59-1.85,1.61-1.85h.38a.38.38,0,0,0,.38-.4V105a.35.35,0,0,0-.37-.4h-.22a2.15,2.15,0,0,0-1.88,1.13V105a.33.33,0,0,0-.32-.3h-1.32a.32.32,0,0,0-.32.33v7a.32.32,0,0,0,.32.32h1.4a.33.33,0,0,0,.34-.3"/><path class="cls-1" d="M232.58,110.65a2.15,2.15,0,1,1,2.06-2.15,2.07,2.07,0,0,1-2.06,2.15m4.13-2.14a4.13,4.13,0,1,0-4.13,4,4.07,4.07,0,0,0,4.13-4"/><path class="cls-1" d="M243.07,104.66a.38.38,0,0,0-.4.32l-1.59,5.28L239.34,105a.4.4,0,0,0-.4-.32h-1.55a.34.34,0,0,0-.3.49l2.44,6.86a.45.45,0,0,0,.43.33h2a.44.44,0,0,0,.41-.33l2.44-6.86a.35.35,0,0,0-.32-.49Z"/><path class="cls-1" d="M248,112v-7a.33.33,0,0,0-.33-.34h-1.39a.33.33,0,0,0-.34.34v7a.34.34,0,0,0,.34.34h1.39A.34.34,0,0,0,248,112"/><path class="cls-1" d="M254.21,104.43a3.06,3.06,0,0,0-2.55,1.13V105a.34.34,0,0,0-.33-.3h-1.4a.32.32,0,0,0-.32.34v7a.32.32,0,0,0,.32.32h1.4a.33.33,0,0,0,.33-.3v-3.71a1.86,1.86,0,0,1,1.93-2,1.79,1.79,0,0,1,1.86,2V112a.32.32,0,0,0,.33.3h1.39a.32.32,0,0,0,.33-.3v-4.27a3.15,3.15,0,0,0-3.3-3.33"/><path class="cls-1" d="M262.83,110.57a2.12,2.12,0,1,1,2.06-2.12,2,2,0,0,1-2.06,2.12m3.78-5.9h-1.39a.32.32,0,0,0-.32.32v.62a2.78,2.78,0,0,0-2.4-1.18,4,4,0,0,0,.08,8,2.72,2.72,0,0,0,2.33-1.1v1a2.09,2.09,0,0,1-4,.73.31.31,0,0,0-.37-.14l-1.48.4a.24.24,0,0,0-.16.32c.35,1.45,1.85,2.38,3.89,2.38,2.57,0,4.13-1.48,4.13-3.62V105a.32.32,0,0,0-.33-.32"/><path class="cls-1" d="M276.64,104.43a3.06,3.06,0,0,0-2.55,1.13v-4.08a.33.33,0,0,0-.33-.3h-1.4a.32.32,0,0,0-.32.32V112a.32.32,0,0,0,.32.32h1.4a.33.33,0,0,0,.33-.3v-3.71a1.86,1.86,0,0,1,1.93-2,1.79,1.79,0,0,1,1.87,2V112a.32.32,0,0,0,.33.3h1.39a.32.32,0,0,0,.33-.3v-4.27a3.15,3.15,0,0,0-3.3-3.33"/><path class="cls-1" d="M283.28,107.7a1.94,1.94,0,0,1,1.9-1.61,1.87,1.87,0,0,1,1.88,1.61Zm1.88-3.27a4,4,0,0,0-4,4.1,4.21,4.21,0,0,0,7.41,2.55.32.32,0,0,0-.06-.46l-1-.7c-.18-.13-.3,0-.41.08a2.2,2.2,0,0,1-1.8.82,2,2,0,0,1-2-1.8h5.48c.29,0,.37-.16.37-.35v-.38a3.8,3.8,0,0,0-3.92-3.84"/><path class="cls-1" d="M294.19,110.67a2.16,2.16,0,0,1,0-4.32,2.16,2.16,0,0,1,0,4.32m3.78-6h-1.4a.33.33,0,0,0-.32.33v.6a2.66,2.66,0,0,0-2.34-1.16,4.07,4.07,0,0,0,0,8.13,2.7,2.7,0,0,0,2.36-1.17V112a.32.32,0,0,0,.32.32H298a.32.32,0,0,0,.32-.32v-7a.32.32,0,0,0-.32-.33"/><path class="cls-1" d="M303,110.63h-.46a.54.54,0,0,1-.57-.6v-8.51a.34.34,0,0,0-.33-.33h-1.39a.34.34,0,0,0-.33.33v8.91a1.74,1.74,0,0,0,2,1.91h1a.37.37,0,0,0,.41-.4v-1a.29.29,0,0,0-.32-.31"/><path class="cls-1" d="M309.09,110.43c-.14-.21-.38-.21-.62-.06a1.42,1.42,0,0,1-.73.24.87.87,0,0,1-.88-1v-3.24h2.23a.35.35,0,0,0,.33-.33V105a.34.34,0,0,0-.33-.34h-2.23v-2.14a.32.32,0,0,0-.32-.33h-1.4a.33.33,0,0,0-.34.33v2.14h-1.05a.32.32,0,0,0-.32.34V106a.33.33,0,0,0,.32.33h1.05v3.7a2.34,2.34,0,0,0,2.55,2.42,3.08,3.08,0,0,0,2.17-.77.39.39,0,0,0,0-.53Z"/><path class="cls-1" d="M315.18,104.43a3.06,3.06,0,0,0-2.55,1.13v-4.08a.33.33,0,0,0-.33-.3h-1.4a.32.32,0,0,0-.32.32V112a.32.32,0,0,0,.32.32h1.4a.33.33,0,0,0,.33-.3v-3.71a1.86,1.86,0,0,1,1.93-2,1.79,1.79,0,0,1,1.86,2V112a.32.32,0,0,0,.33.3h1.39a.32.32,0,0,0,.33-.3v-4.27a3.15,3.15,0,0,0-3.3-3.33"/><path class="cls-1" d="M321.24,109.74a1.41,1.41,0,1,0,1.42,1.42,1.41,1.41,0,0,0-1.42-1.42"/><path class="cls-1" d="M110.83,120.8v-1.27a.34.34,0,0,0-.34-.35h-8.83a.34.34,0,0,0-.33.35v1.27a.33.33,0,0,0,.33.34H105V130a.34.34,0,0,0,.33.35h1.51a.36.36,0,0,0,.35-.35v-8.85h3.32a.33.33,0,0,0,.34-.34"/><path class="cls-1" d="M114.29,122.55h-.22a2.16,2.16,0,0,0-1.88,1.13V123a.33.33,0,0,0-.32-.3h-1.32a.32.32,0,0,0-.32.33v7a.32.32,0,0,0,.32.32h1.4a.33.33,0,0,0,.33-.3v-3.46c0-1.32.59-1.85,1.61-1.85h.38a.38.38,0,0,0,.38-.4V123a.35.35,0,0,0-.37-.4"/><path class="cls-1" d="M119.25,128.66a2.16,2.16,0,0,1,0-4.32,2.16,2.16,0,0,1,0,4.32m3.78-6h-1.4a.33.33,0,0,0-.32.34v.6a2.66,2.66,0,0,0-2.35-1.16,4.07,4.07,0,0,0,0,8.13,2.71,2.71,0,0,0,2.36-1.16V130a.32.32,0,0,0,.32.32H123a.32.32,0,0,0,.32-.32v-7a.32.32,0,0,0-.32-.34"/><path class="cls-1" d="M129.59,122.43a3.06,3.06,0,0,0-2.55,1.13V123a.34.34,0,0,0-.33-.3h-1.4a.32.32,0,0,0-.32.33v7a.32.32,0,0,0,.32.32h1.4a.33.33,0,0,0,.33-.3v-3.71a1.86,1.86,0,0,1,1.93-2,1.79,1.79,0,0,1,1.86,2V130a.32.32,0,0,0,.33.3h1.39a.32.32,0,0,0,.33-.3v-4.27a3.15,3.15,0,0,0-3.3-3.33"/><path class="cls-1" d="M138.49,125.69l-1.26-.24c-.7-.13-1-.36-1-.73s.45-.68,1.15-.68a3.25,3.25,0,0,1,1.82.65c.29.17.53.17.72,0l.51-.6a.42.42,0,0,0,0-.64,4.6,4.6,0,0,0-3-1c-2,0-3.25,1.07-3.25,2.46a2.29,2.29,0,0,0,2.07,2.28l1.23.26c.8.16,1.23.32,1.23.77s-.4.76-1.23.76a2.93,2.93,0,0,1-2-.8.5.5,0,0,0-.72,0l-.59.48c-.32.26-.35.62.24,1.07a4.81,4.81,0,0,0,2.93.91c2,0,3.43-1.09,3.43-2.57s-1-2-2.34-2.3"/><path class="cls-1" d="M147.68,119.48a3.39,3.39,0,0,0-2.12-.73,2.56,2.56,0,0,0-2.73,2.69v1.21h-1a.33.33,0,0,0-.34.33V124a.34.34,0,0,0,.34.33h1V130a.35.35,0,0,0,.34.33h1.4a.34.34,0,0,0,.32-.33v-5.63h1.51a.35.35,0,0,0,.34-.33V123a.34.34,0,0,0-.34-.33h-1.51v-1a.88.88,0,0,1,.86-1,1.39,1.39,0,0,1,.75.25c.16.11.43.24.6,0l.61-.83a.41.41,0,0,0,0-.54"/><path class="cls-1" d="M151.25,128.64a2.15,2.15,0,1,1,2.06-2.15,2.07,2.07,0,0,1-2.06,2.15m0-6.22a4.07,4.07,0,1,0,4.13,4.08,4.07,4.07,0,0,0-4.13-4.08"/><path class="cls-1" d="M160.69,122.55h-.22a2.16,2.16,0,0,0-1.88,1.13V123a.33.33,0,0,0-.32-.3h-1.32a.32.32,0,0,0-.32.33v7a.32.32,0,0,0,.32.32h1.4a.33.33,0,0,0,.34-.3v-3.46c0-1.32.59-1.85,1.61-1.85h.38a.38.38,0,0,0,.38-.4V123a.35.35,0,0,0-.37-.4"/><path class="cls-1" d="M171.74,122.43a3.3,3.3,0,0,0-2.73,1.36,2.67,2.67,0,0,0-2.46-1.36,3,3,0,0,0-2.39,1.13V123a.35.35,0,0,0-.33-.3h-1.4a.32.32,0,0,0-.32.33v7a.32.32,0,0,0,.32.32h1.4a.33.33,0,0,0,.33-.3v-3.86a1.69,1.69,0,0,1,1.74-1.85,1.62,1.62,0,0,1,1.64,1.85V130a.33.33,0,0,0,.33.3h1.39a.33.33,0,0,0,.34-.3v-3.86a1.68,1.68,0,0,1,1.72-1.85,1.62,1.62,0,0,1,1.64,1.85V130a.32.32,0,0,0,.33.3h1.39a.32.32,0,0,0,.34-.3v-4.35a3.09,3.09,0,0,0-3.28-3.25"/><path class="cls-1" d="M177.62,119.06a1.29,1.29,0,1,0,1.27,1.29,1.3,1.3,0,0,0-1.27-1.29"/><path class="cls-1" d="M178.3,122.65h-1.39a.33.33,0,0,0-.33.34v7a.34.34,0,0,0,.33.33h1.39a.34.34,0,0,0,.33-.33v-7a.33.33,0,0,0-.33-.34"/><path class="cls-1" d="M184.89,122.43a3.06,3.06,0,0,0-2.55,1.13V123a.34.34,0,0,0-.34-.3h-1.4a.32.32,0,0,0-.32.33v7a.32.32,0,0,0,.32.32H182a.33.33,0,0,0,.34-.3v-3.71a1.86,1.86,0,0,1,1.93-2,1.79,1.79,0,0,1,1.86,2V130a.32.32,0,0,0,.33.3h1.39a.32.32,0,0,0,.33-.3v-4.27a3.15,3.15,0,0,0-3.3-3.33"/><path class="cls-1" d="M193.51,128.56a2.12,2.12,0,1,1,2.06-2.12,2,2,0,0,1-2.06,2.12m3.78-5.9H195.9a.32.32,0,0,0-.32.32v.62a2.78,2.78,0,0,0-2.41-1.18,4,4,0,0,0,.08,8,2.72,2.72,0,0,0,2.33-1.1v1a2.09,2.09,0,0,1-4,.73.31.31,0,0,0-.37-.14l-1.48.4a.24.24,0,0,0-.16.32c.35,1.45,1.85,2.38,3.89,2.38,2.57,0,4.13-1.48,4.13-3.62V123a.32.32,0,0,0-.33-.32"/><path class="cls-1" d="M208.35,119.48a3.39,3.39,0,0,0-2.12-.73,2.56,2.56,0,0,0-2.73,2.69v1.21h-1a.33.33,0,0,0-.33.33V124a.34.34,0,0,0,.33.33h1V130a.35.35,0,0,0,.34.33h1.4a.34.34,0,0,0,.32-.33v-5.63h1.51a.35.35,0,0,0,.33-.33V123a.34.34,0,0,0-.33-.33h-1.51v-1a.88.88,0,0,1,.86-1,1.38,1.38,0,0,1,.75.25c.16.11.43.24.61,0l.6-.83a.41.41,0,0,0,0-.54"/><path class="cls-1" d="M215.59,122.65h-1.4a.33.33,0,0,0-.32.3v4a1.68,1.68,0,0,1-1.77,1.83,1.63,1.63,0,0,1-1.72-1.86v-4a.33.33,0,0,0-.33-.3h-1.39a.33.33,0,0,0-.33.3v4.33a3,3,0,0,0,3.16,3.27,2.72,2.72,0,0,0,2.39-1.13V130a.32.32,0,0,0,.32.3h1.4a.32.32,0,0,0,.33-.32v-7a.33.33,0,0,0-.33-.34"/><path class="cls-1" d="M222.55,128.42a.43.43,0,0,0-.62-.06,1.41,1.41,0,0,1-.74.24.87.87,0,0,1-.88-1v-3.24h2.23a.35.35,0,0,0,.33-.34V123a.34.34,0,0,0-.33-.33h-2.23v-2.14a.32.32,0,0,0-.32-.33h-1.4a.33.33,0,0,0-.33.33v2.14h-1.05a.32.32,0,0,0-.32.33V124a.33.33,0,0,0,.32.34h1.05v3.7a2.33,2.33,0,0,0,2.55,2.42,3.07,3.07,0,0,0,2.17-.76.39.39,0,0,0,0-.53Z"/><path class="cls-1" d="M231.22,122.65h-1.4a.33.33,0,0,0-.32.3v4a1.68,1.68,0,0,1-1.77,1.83,1.63,1.63,0,0,1-1.72-1.86v-4a.33.33,0,0,0-.33-.3h-1.39a.33.33,0,0,0-.33.3v4.33a3,3,0,0,0,3.16,3.27,2.72,2.72,0,0,0,2.39-1.13V130a.32.32,0,0,0,.32.3h1.4a.33.33,0,0,0,.33-.32v-7a.33.33,0,0,0-.33-.34"/><path class="cls-1" d="M237.27,122.55H237a2.15,2.15,0,0,0-1.88,1.13V123a.33.33,0,0,0-.32-.3h-1.32a.33.33,0,0,0-.32.33v7a.32.32,0,0,0,.32.32h1.4a.33.33,0,0,0,.34-.3v-3.46c0-1.32.59-1.85,1.61-1.85h.38a.38.38,0,0,0,.38-.4V123a.35.35,0,0,0-.37-.4"/><path class="cls-1" d="M240.24,125.7a1.94,1.94,0,0,1,1.9-1.61A1.87,1.87,0,0,1,244,125.7Zm1.88-3.27a4,4,0,0,0-4,4.1,4.21,4.21,0,0,0,7.41,2.55.32.32,0,0,0-.06-.46l-1-.7c-.18-.13-.3,0-.42.08a2.2,2.2,0,0,1-1.8.82,2,2,0,0,1-2-1.8h5.48c.29,0,.37-.16.37-.35v-.38a3.8,3.8,0,0,0-3.92-3.84"/><path class="cls-1" d="M251.21,125.69l-1.26-.24c-.7-.13-1-.36-1-.73s.45-.68,1.15-.68a3.25,3.25,0,0,1,1.82.65c.29.17.53.17.72,0l.51-.6a.42.42,0,0,0,0-.64,4.6,4.6,0,0,0-3-1c-2,0-3.25,1.07-3.25,2.46a2.29,2.29,0,0,0,2.07,2.28l1.23.26c.8.16,1.23.32,1.23.77s-.4.76-1.23.76a2.92,2.92,0,0,1-2-.8.5.5,0,0,0-.72,0l-.59.48c-.32.26-.35.62.24,1.07a4.81,4.81,0,0,0,2.93.91c2,0,3.43-1.09,3.43-2.57s-1-2-2.34-2.3"/><path class="cls-1" d="M256,127.73a1.41,1.41,0,1,0,1.42,1.42,1.42,1.42,0,0,0-1.42-1.42"/><path class="cls-1" d="M52.07,51.13a12.2,12.2,0,0,0,8.32,3,12.17,12.17,0,0,0,8.32-3A10.29,10.29,0,0,0,72.15,43a10.47,10.47,0,0,0-3.43-8.21,12,12,0,0,0-8.32-3.05,12.06,12.06,0,0,0-8.32,3.05A10.48,10.48,0,0,0,48.66,43a10.3,10.3,0,0,0,3.42,8.15"/><path class="cls-1" d="M53.68,78.38a16.35,16.35,0,0,0-3.06,9.78,29.87,29.87,0,0,0,.64,6.38.93.93,0,0,0,1.16.65c12.09-5.25,19.24-13.3,19.24-23.43,0-8.89-5.24-13.83-11.66-13.83S48.35,62.57,48.35,68.8a10.61,10.61,0,0,0,5.33,9.58"/><path class="cls-1" d="M19.54,22.21a13.94,13.94,0,0,0,9.52,3.42,13.92,13.92,0,0,0,9.52-3.42,11.77,11.77,0,0,0,3.92-9.33,12,12,0,0,0-3.92-9.39A13.77,13.77,0,0,0,29.06,0a13.8,13.8,0,0,0-9.52,3.49,12,12,0,0,0-3.91,9.39,11.78,11.78,0,0,0,3.91,9.33"/><path class="cls-1" d="M15.77,129.75a29.51,29.51,0,0,0,6.82-1,29.11,29.11,0,0,0,7.84-3.23,26.67,26.67,0,0,0,7-6,23.6,23.6,0,0,0,4.64-9.18,40.83,40.83,0,0,0,1.22-8q.28-4.46.28-7.47s0-39.95,0-46.95c0-.63,0-1,0-1,0-.28,0-2.34-.05-2.62-.28-3.39-1.68-9-8.19-11.05-11-3.41-18-.19-18-.19a1.9,1.9,0,0,0-1,1.69l0,62.08a26.27,26.27,0,0,1-.55,5.55,10.8,10.8,0,0,1-2.06,4.45A11.06,11.06,0,0,1,9.47,110a26,26,0,0,1-7.91,1.72A1.41,1.41,0,0,0,.24,113.1s-.52,8.64,0,11.48c.3,5.39,15.56,5.17,15.56,5.17"/></g></g></g></svg>